<svg xmlns="http://www.w3.org/2000/svg" viewBox="0 0 256 256" width="128" height="128">
  <rect width="256" height="256" rx="16" fill="#111"/>
  <!-- document -->
  <rect x="56" y="32" width="144" height="192" rx="8" fill="#1a1a1a" stroke="#555" stroke-width="2.5"/>
  <!-- text lines -->
  <rect x="76" y="56" width="80" height="6" rx="3" fill="#555"/>
  <rect x="76" y="72" width="60" height="6" rx="3" fill="#555"/>
  <rect x="76" y="88" width="90" height="6" rx="3" fill="#555"/>
  <rect x="76" y="120" width="70" height="6" rx="3" fill="#555"/>
  <rect x="76" y="136" width="85" height="6" rx="3" fill="#555"/>
  <rect x="76" y="168" width="65" height="6" rx="3" fill="#555"/>
  <rect x="76" y="184" width="75" height="6" rx="3" fill="#555"/>
  <!-- patch overlay blocks -->
  <rect x="72" y="84" width="98" height="16" rx="4" fill="#4cc9f0" opacity="0.25"/>
  <rect x="76" y="88" width="90" height="6" rx="3" fill="#4cc9f0"/>
  <rect x="72" y="100" width="80" height="16" rx="4" fill="#f4a261" opacity="0.25"/>
  <rect x="76" y="104" width="72" height="6" rx="3" fill="#f4a261"/>
  <rect x="72" y="164" width="82" height="16" rx="4" fill="#f72585" opacity="0.25"/>
  <rect x="76" y="168" width="65" height="6" rx="3" fill="#f72585"/>
</svg>
